REM DIRINDEX 1\2,1\3,1\4,1\5
REM DIRNAME folder01,folder02,folder03,folder04,folder05
TITLE ""
FILE "P1Q_t_0020-0029.mp3" MP3
  TRACK 01 AUDIO
    TITLE "3:cjc005_0960"
    INDEX 01 00:00:00
  TRACK 02 AUDIO
    TITLE "0:"
    INDEX 01 00:00:74
  TRACK 03 AUDIO
    TITLE "4:cjc005_0961"
    INDEX 01 00:01:22
  TRACK 04 AUDIO
    TITLE "0:"
    INDEX 01 00:02:57
  TRACK 05 AUDIO
    TITLE "5:cjc005_0962"
    INDEX 01 00:03:06
  TRACK 06 AUDIO
    TITLE "0:"
    INDEX 01 00:07:29
  TRACK 07 AUDIO
    TITLE "3:cjc005_0963"
    INDEX 01 00:08:01
  TRACK 08 AUDIO
    TITLE "0:"
    INDEX 01 00:09:14
  TRACK 09 AUDIO
    TITLE "4:cjc005_0964"
    INDEX 01 00:09:32
  TRACK 10 AUDIO
    TITLE "0:"
    INDEX 01 00:10:49
  TRACK 11 AUDIO
    TITLE "5:cjc005_0965"
    INDEX 01 00:10:70
  TRACK 12 AUDIO
    TITLE "0:"
    INDEX 01 00:15:30
  TRACK 13 AUDIO
    TITLE "3:cjc005_0966"
    INDEX 01 00:16:02
  TRACK 14 AUDIO
    TITLE "0:"
    INDEX 01 00:17:06
  TRACK 15 AUDIO
    TITLE "4:cjc005_0967"
    INDEX 01 00:17:29
  TRACK 16 AUDIO
    TITLE "0:"
    INDEX 01 00:18:60
  TRACK 17 AUDIO
    TITLE "5:cjc005_0968"
    INDEX 01 00:19:05
  TRACK 18 AUDIO
    TITLE "0:"
    INDEX 01 00:22:70
  TRACK 19 AUDIO
    TITLE "3:cjc005_0969"
    INDEX 01 00:23:46
  TRACK 20 AUDIO
    TITLE "0:"
    INDEX 01 00:25:05
  TRACK 21 AUDIO
    TITLE "4:cjc005_0970"
    INDEX 01 00:25:27
  TRACK 22 AUDIO
    TITLE "0:"
    INDEX 01 00:26:60
  TRACK 23 AUDIO
    TITLE "5:cjc005_0971"
    INDEX 01 00:27:06
  TRACK 24 AUDIO
    TITLE "0:"
    INDEX 01 00:31:00
  TRACK 25 AUDIO
    TITLE "3:cjc005_0972"
    INDEX 01 00:31:51
  TRACK 26 AUDIO
    TITLE "0:"
    INDEX 01 00:32:64
  TRACK 27 AUDIO
    TITLE "4:cjc005_0973"
    INDEX 01 00:33:13
  TRACK 28 AUDIO
    TITLE "0:"
    INDEX 01 00:34:43
  TRACK 29 AUDIO
    TITLE "5:cjc005_0974"
    INDEX 01 00:34:63
  TRACK 30 AUDIO
    TITLE "0:"
    INDEX 01 00:39:15
  TRACK 31 AUDIO
    TITLE "3:cjc005_0975"
    INDEX 01 00:39:62
  TRACK 32 AUDIO
    TITLE "0:"
    INDEX 01 00:40:68
  TRACK 33 AUDIO
    TITLE "4:cjc005_0976"
    INDEX 01 00:41:18
  TRACK 34 AUDIO
    TITLE "0:"
    INDEX 01 00:42:51
  TRACK 35 AUDIO
    TITLE "5:cjc005_0977"
    INDEX 01 00:42:74
  TRACK 36 AUDIO
    TITLE "0:"
    INDEX 01 00:47:52
  TRACK 37 AUDIO
    TITLE "3:cjc005_0978"
    INDEX 01 00:48:28
  TRACK 38 AUDIO
    TITLE "0:"
    INDEX 01 00:49:33
  TRACK 39 AUDIO
    TITLE "4:cjc005_0979"
    INDEX 01 00:49:55
  TRACK 40 AUDIO
    TITLE "0:"
    INDEX 01 00:50:74
  TRACK 41 AUDIO
    TITLE "5:cjc005_0980"
    INDEX 01 00:51:20
  TRACK 42 AUDIO
    TITLE "0:"
    INDEX 01 00:55:03
  TRACK 43 AUDIO
    TITLE "3:cjc005_0981"
    INDEX 01 00:55:55
  TRACK 44 AUDIO
    TITLE "0:"
    INDEX 01 00:57:09
  TRACK 45 AUDIO
    TITLE "4:cjc005_0982"
    INDEX 01 00:57:31
  TRACK 46 AUDIO
    TITLE "0:"
    INDEX 01 00:58:69
  TRACK 47 AUDIO
    TITLE "5:cjc005_0983"
    INDEX 01 00:59:20
  TRACK 48 AUDIO
    TITLE "0:"
    INDEX 01 01:03:37
  TRACK 49 AUDIO
    TITLE "3:cjc005_0984"
    INDEX 01 01:04:15
  TRACK 50 AUDIO
    TITLE "0:"
    INDEX 01 01:05:36
  TRACK 51 AUDIO
    TITLE "4:cjc005_0985"
    INDEX 01 01:05:62
  TRACK 52 AUDIO
    TITLE "0:"
    INDEX 01 01:07:17
  TRACK 53 AUDIO
    TITLE "5:cjc005_0986"
    INDEX 01 01:07:39
  TRACK 54 AUDIO
    TITLE "0:"
    INDEX 01 01:12:05
  TRACK 55 AUDIO
    TITLE "3:cjc005_0987"
    INDEX 01 01:12:58
  TRACK 56 AUDIO
    TITLE "0:"
    INDEX 01 01:13:65
  TRACK 57 AUDIO
    TITLE "4:cjc005_0988"
    INDEX 01 01:14:16
  TRACK 58 AUDIO
    TITLE "0:"
    INDEX 01 01:15:40
  TRACK 59 AUDIO
    TITLE "5:cjc005_0989"
    INDEX 01 01:15:64
  TRACK 60 AUDIO
    TITLE "0:"
    INDEX 01 01:20:59
